<svg version="1.1" xmlns="http://www.w3.org/2000/svg" viewBox="0 0 1254 1254" width="48" height="48"><path d="M419.68,209.05 C493.28,270.49 567.61,335.95 639.27,398.75 C721.07,470.44 803.92,543.23 883.25,615.76 C893.89,625.48 930.47,657.01 935.90,665.75 C948.92,686.69 938.66,708.22 919.18,714.00 C861.64,722.64 800.63,726.02 740.00,733.12 C774.58,806.72 814.34,876.76 849.60,950.25 C856.84,973.34 845.69,993.60 831.16,1002.87 C826.48,1005.85 752.44,1041.85 748.25,1043.28 C723.07,1051.93 702.10,1038.74 693.14,1023.75 C655.15,946.51 616.13,870.24 577.84,793.41 L576.37,792.84 C540.81,828.02 505.54,866.68 470.25,901.39 C449.76,917.36 422.17,910.92 418.51,884.25 C403.21,666.74 387.05,446.83 373.89,226.59 C378.15,206.09 399.91,196.97 419.68,209.05 Z" fill="#8D6EB7" fill-rule="nonzero"/><g><path d="M408.39,222.06 C579.37,366.98 748.59,516.58 913.75,666.36 C925.74,675.86 932.23,693.50 911.73,698.50 C852.07,704.66 791.01,711.04 731.09,716.41 C723.88,718.78 719.28,723.86 720.50,734.56 L833.56,955.07 C838.06,968.79 830.52,983.29 822.75,988.25 C795.87,1000.62 770.07,1013.84 743.75,1026.57 C730.35,1032.71 715.67,1026.33 708.96,1017.35 L590.56,781.25 C587.31,774.07 576.80,771.31 568.40,776.50 C531.09,813.17 494.96,852.69 457.50,889.55 C446.71,895.76 437.30,894.11 435.04,881.75 C420.33,664.94 404.76,448.44 390.50,231.26 C391.00,222.21 399.12,217.73 408.39,222.06 Z" fill="#E6CFF4" fill-rule="nonzero"/><g><path d="M626.83,466.50 C629.16,467.94 629.93,471.43 627.95,474.03 C602.22,488.67 577.88,522.95 584.05,566.25 C595.13,635.87 677.62,667.31 735.79,619.15 C755.22,610.82 733.41,648.63 731.82,651.25 C688.48,722.68 582.39,730.28 531.40,658.94 C473.73,579.58 533.01,466.54 626.83,466.50 Z M620.10,473.08 C514.27,552.19 625.80,707.79 738.55,623.87 C709.16,715.47 583.76,732.97 531.26,649.75 C484.67,572.56 538.45,479.50 617.00,471.86 C621.33,471.82 621.61,471.93 620.10,473.08 Z" fill="#8D6EB7" fill-rule="nonzero"/><g><path d="M617.00,471.86 C618.89,471.97 619.59,472.24 620.10,473.08 C514.27,552.19 625.80,707.79 738.55,623.87 C709.16,715.47 583.76,732.97 531.26,649.75 C484.67,572.56 538.45,479.50 617.00,471.86 Z" fill="#FEEAEA" fill-rule="nonzero"/><path d="M617.00,471.86 C621.33,471.82 621.61,471.93 620.10,473.08 C619.59,472.24 618.89,471.97 617.00,471.86 Z" fill="#E6CFF4" fill-rule="nonzero"/></g></g><g><path d="M726.48,852.83 C732.18,873.23 734.32,875.40 752.99,882.99 C756.38,884.37 763.83,884.42 762.50,889.89 C761.81,892.71 737.67,898.54 732.11,907.91 C729.35,912.55 723.46,938.07 723.46,938.07 C721.02,939.75 717.76,939.70 716.56,937.21 C714.24,925.83 711.46,914.49 706.84,905.50 C700.16,899.89 690.93,894.76 680.46,892.36 C673.90,885.67 684.18,884.46 688.75,882.39 C692.08,880.88 705.37,874.32 707.22,871.75 C711.02,862.36 714.58,851.07 716.12,838.84 C724.67,829.62 725.00,847.53 726.48,852.83 Z" fill="#8D6EB7" fill-rule="nonzero"/><path d="M720.70,846.82 C722.34,856.72 726.00,868.22 729.84,875.25 C736.88,880.51 746.05,885.65 754.31,888.25 C756.97,889.11 746.46,892.21 746.25,892.31 C741.58,894.60 732.27,900.15 729.44,903.67 C725.61,908.44 720.66,929.20 720.66,929.20 C720.66,929.20 719.90,929.77 719.50,929.58 C714.47,903.50 709.14,897.50 686.26,889.03 C684.52,888.14 690.98,886.66 691.29,886.51 C714.37,875.82 711.82,874.61 719.00,849.54 C719.26,848.64 718.96,844.67 720.70,846.82 Z" fill="#FFA5CD" fill-rule="nonzero"/></g><path d="M484.04,388.00 C485.76,387.80 488.08,388.13 488.56,388.85 C490.44,401.50 494.72,414.19 498.76,423.95 C505.33,428.09 512.81,432.62 519.75,435.43 C522.60,436.58 530.63,436.64 528.50,441.88 C496.58,455.21 498.33,452.14 489.50,485.70 C488.93,487.86 489.84,491.54 486.42,492.00 C484.87,492.21 483.90,491.56 483.37,490.49 C475.67,456.49 477.64,455.81 449.25,444.17 C446.71,443.13 440.78,442.71 443.25,438.25 C443.25,438.25 470.46,427.95 473.60,423.73 C478.47,413.63 480.77,399.90 484.04,388.00 Z" fill="#FFFFFF" fill-rule="nonzero"/><path d="M497.96,704.00 C504.48,724.92 499.96,728.83 519.29,736.93 C521.46,737.84 528.12,737.83 526.50,741.94 C502.97,750.99 504.60,751.30 498.02,776.50 C493.98,776.74 495.05,774.30 494.50,772.48 C490.07,757.68 491.91,752.05 478.25,746.11 C449.80,737.71 484.05,740.24 490.38,724.25 C491.36,721.78 494.94,704.84 494.94,704.84 C495.06,704.67 496.92,703.55 497.96,704.00 Z" fill="#8D6EB7" fill-rule="nonzero"/><path d="M473.53,604.89 C466.31,614.30 451.72,605.84 457.04,594.99 C462.79,583.27 482.02,593.84 473.53,604.89 Z" fill="#8D6EB7" fill-rule="nonzero"/><path d="M671.25,792.62 C682.21,798.45 671.04,817.23 660.32,808.75 C652.03,802.19 659.51,786.38 671.25,792.62 Z" fill="#8D6EB7" fill-rule="nonzero"/><path d="M779.04,945.00 C789.83,946.98 788.35,967.29 773.15,963.50 C764.21,961.28 765.25,942.47 779.04,945.00 Z" fill="#FFFFFF" fill-rule="nonzero"/><path d="M454.50,350.05 C452.65,359.18 434.04,359.96 435.88,345.54 C437.34,334.09 457.37,335.93 454.50,350.05 Z" fill="#FFFFFF" fill-rule="nonzero"/><path d="M808.00,657.07 C810.79,672.88 786.65,672.15 789.39,657.17 C791.10,647.88 806.34,647.65 808.00,657.07 Z" fill="#FFFFFF" fill-rule="nonzero"/></g></svg>
